<svg width="30" height="30" viewBox="0 0 30 30" fill="none" xmlns="http://www.w3.org/2000/svg">
<rect width="30" height="30" />
<path d="M6 8.25C6 7.55859 6.55859 7 7.25 7H22.25C22.9414 7 23.5 7.55859 23.5 8.25C23.5 8.94141 22.9414 9.5 22.25 9.5H7.25C6.55859 9.5 6 8.94141 6 8.25ZM6 14.5C6 13.8086 6.55859 13.25 7.25 13.25H22.25C22.9414 13.25 23.5 13.8086 23.5 14.5C23.5 15.1914 22.9414 15.75 22.25 15.75H7.25C6.55859 15.75 6 15.1914 6 14.5ZM23.5 20.75C23.5 21.4414 22.9414 22 22.25 22H7.25C6.55859 22 6 21.4414 6 20.75C6 20.0586 6.55859 19.5 7.25 19.5H22.25C22.9414 19.5 23.5 20.0586 23.5 20.75Z" fill="currentColor"/>
</svg>
