<svg width="30" height="30" viewBox="0 0 30 30" fill="none" xmlns="http://www.w3.org/2000/svg">
<rect width="30" height="30" />
<path d="M9.75 6.25V7.5H7.875C6.83984 7.5 6 8.33984 6 9.375V11.25H23.5V9.375C23.5 8.33984 22.6602 7.5 21.625 7.5H19.75V6.25C19.75 5.55859 19.1914 5 18.5 5C17.8086 5 17.25 5.55859 17.25 6.25V7.5H12.25V6.25C12.25 5.55859 11.6914 5 11 5C10.3086 5 9.75 5.55859 9.75 6.25ZM23.5 12.5H6V23.125C6 24.1602 6.83984 25 7.875 25H21.625C22.6602 25 23.5 24.1602 23.5 23.125V12.5Z" fill="currentColor"/>
</svg>
