<svg width="30" height="30" viewBox="0 0 30 30" fill="none" xmlns="http://www.w3.org/2000/svg">
<rect width="30" height="30" />
<path d="M15 25C20.5234 25 25 20.5234 25 15C25 9.47656 20.5234 5 15 5C9.47656 5 5 9.47656 5 15C5 20.5234 9.47656 25 15 25ZM11.8359 11.8359C12.2031 11.4688 12.7969 11.4688 13.1602 11.8359L14.9961 13.6719L16.832 11.8359C17.1992 11.4688 17.793 11.4688 18.1562 11.8359C18.5195 12.2031 18.5234 12.7969 18.1562 13.1602L16.3203 14.9961L18.1562 16.832C18.5234 17.1992 18.5234 17.793 18.1562 18.1562C17.7891 18.5195 17.1953 18.5234 16.832 18.1562L14.9961 16.3203L13.1602 18.1562C12.793 18.5234 12.1992 18.5234 11.8359 18.1562C11.4727 17.7891 11.4688 17.1953 11.8359 16.832L13.6719 14.9961L11.8359 13.1602C11.4688 12.793 11.4688 12.1992 11.8359 11.8359V11.8359Z" fill="currentColor"/>
</svg>
