<svg width="30" height="30" viewBox="0 0 30 30" fill="none" xmlns="http://www.w3.org/2000/svg">
<g clip-path="url(#clip0_3332_2546)">
<path d="M15 25C20.5234 25 25 20.5234 25 15C25 9.47656 20.5234 5 15 5C9.47656 5 5 9.47656 5 15C5 20.5234 9.47656 25 15 25ZM19.4141 13.1641L14.4141 18.1641C14.0469 18.5312 13.4531 18.5312 13.0898 18.1641L10.5898 15.6641C10.2227 15.2969 10.2227 14.7031 10.5898 14.3398C10.957 13.9766 11.5508 13.9727 11.9141 14.3398L13.75 16.1758L18.0859 11.8359C18.4531 11.4688 19.0469 11.4688 19.4102 11.8359C19.7734 12.2031 19.7773 12.7969 19.4102 13.1602L19.4141 13.1641Z" fill="currentColor"/>
</g>
</svg>
