<svg width="30" height="30" viewBox="0 0 30 30" fill="none" xmlns="http://www.w3.org/2000/svg">
<rect width="30" height="30" />
<path d="M25 15C25 20.5234 20.5234 25 15 25C9.47656 25 5 20.5234 5 15C5 9.47656 9.47656 5 15 5C20.5234 5 25 9.47656 25 15ZM12.3555 10.7461C12.0586 10.9102 11.875 11.2266 11.875 11.5625V18.4375C11.875 18.7773 12.0586 19.0898 12.3555 19.2539C12.6523 19.418 13.0117 19.4141 13.3047 19.2344L18.9297 15.7969C19.207 15.625 19.3789 15.3242 19.3789 14.9961C19.3789 14.668 19.207 14.3672 18.9297 14.1953L13.3047 10.7578C13.0156 10.582 12.6523 10.5742 12.3555 10.7383V10.7461Z" fill="currentColor"/>
<path d="M25 15C25 20.5234 20.5234 25 15 25C9.47656 25 5 20.5234 5 15C5 9.47656 9.47656 5 15 5C20.5234 5 25 9.47656 25 15ZM12.3555 10.7461C12.0586 10.9102 11.875 11.2266 11.875 11.5625V18.4375C11.875 18.7773 12.0586 19.0898 12.3555 19.2539C12.6523 19.418 13.0117 19.4141 13.3047 19.2344L18.9297 15.7969C19.207 15.625 19.3789 15.3242 19.3789 14.9961C19.3789 14.668 19.207 14.3672 18.9297 14.1953L13.3047 10.7578C13.0156 10.582 12.6523 10.5742 12.3555 10.7383V10.7461Z" fill="currentColor"/>
</svg>
