<svg width="30" height="30" viewBox="0 0 30 30" fill="none" xmlns="http://www.w3.org/2000/svg">
<rect width="30" height="30" />
<path d="M21.6804 6.83019C19.2401 4.38994 15.2663 4.38994 12.8286 6.83019L6.06738 13.5862C6.02334 13.6303 6.00002 13.6899 6.00002 13.752C6.00002 13.8142 6.02334 13.8738 6.06738 13.9178L7.02327 14.8737C7.06697 14.9172 7.12611 14.9416 7.18777 14.9416C7.24943 14.9416 7.30857 14.9172 7.35227 14.8737L14.1135 8.11767C14.9528 7.27835 16.0693 6.81724 17.2558 6.81724C18.4422 6.81724 19.5587 7.27835 20.3955 8.11767C21.2348 8.957 21.6959 10.0735 21.6959 11.2574C21.6959 12.4438 21.2348 13.5577 20.3955 14.3971L13.5047 21.2852L12.3882 22.4017C11.3442 23.4457 9.64746 23.4457 8.60348 22.4017C8.09833 21.8966 7.82115 21.2256 7.82115 20.5107C7.82115 19.7957 8.09833 19.1247 8.60348 18.6196L15.4398 11.7858C15.6134 11.6149 15.8414 11.519 16.0849 11.519H16.0875C16.331 11.519 16.5563 11.6149 16.7273 11.7858C16.9009 11.9594 16.9941 12.1874 16.9941 12.4309C16.9941 12.6718 16.8983 12.8997 16.7273 13.0707L11.1396 18.6533C11.0955 18.6973 11.0722 18.7569 11.0722 18.8191C11.0722 18.8812 11.0955 18.9408 11.1396 18.9848L12.0955 19.9407C12.1392 19.9842 12.1983 20.0087 12.26 20.0087C12.3216 20.0087 12.3808 19.9842 12.4245 19.9407L18.0096 14.3556C18.5251 13.8401 18.8075 13.1562 18.8075 12.4283C18.8075 11.7003 18.5225 11.0139 18.0096 10.5009C16.9449 9.43624 15.2145 9.43883 14.1498 10.5009L13.4866 11.1667L7.316 17.3347C6.8972 17.751 6.56522 18.2464 6.33932 18.792C6.11342 19.3377 5.99809 19.9227 6.00002 20.5132C6.00002 21.7126 6.46891 22.8395 7.316 23.6866C8.19418 24.5622 9.34437 25 10.4946 25C11.6447 25 12.7949 24.5622 13.6705 23.6866L21.6804 15.6819C22.859 14.5007 23.5118 12.9282 23.5118 11.2574C23.5144 9.5839 22.8616 8.01146 21.6804 6.83019Z" fill="currentColor"/>
</svg>
