<svg width="30" height="30" viewBox="0 0 30 30" fill="none" xmlns="http://www.w3.org/2000/svg">
<rect width="30" height="30" />
<path d="M8.63672 8.63672L7.44141 7.44141C6.91055 6.91055 6 7.28672 6 8.03555V11.9062C6 12.3738 6.37617 12.75 6.84375 12.75H10.7145C11.4668 12.75 11.843 11.8395 11.3121 11.3086L10.2293 10.2258C11.4492 9.00586 13.1367 8.25 15 8.25C18.7266 8.25 21.75 11.2734 21.75 15C21.75 18.7266 18.7266 21.75 15 21.75C13.5656 21.75 12.2367 21.3035 11.1434 20.5406C10.6336 20.1855 9.93398 20.3086 9.57539 20.8184C9.2168 21.3281 9.34336 22.0277 9.85312 22.3863C11.3156 23.4023 13.091 24 15 24C19.9711 24 24 19.9711 24 15C24 10.0289 19.9711 6 15 6C12.5145 6 10.2645 7.00898 8.63672 8.63672ZM15 10.5C14.5324 10.5 14.1562 10.8762 14.1562 11.3438V15C14.1562 15.225 14.2441 15.4395 14.4023 15.5977L16.9336 18.1289C17.2641 18.4594 17.7984 18.4594 18.1254 18.1289C18.4523 17.7984 18.4559 17.2641 18.1254 16.9371L15.8402 14.652V11.3438C15.8402 10.8762 15.4641 10.5 14.9965 10.5H15Z" fill="currentColor"/>
<path d="M8.63672 8.63672L7.44141 7.44141C6.91055 6.91055 6 7.28672 6 8.03555V11.9062C6 12.3738 6.37617 12.75 6.84375 12.75H10.7145C11.4668 12.75 11.843 11.8395 11.3121 11.3086L10.2293 10.2258C11.4492 9.00586 13.1367 8.25 15 8.25C18.7266 8.25 21.75 11.2734 21.75 15C21.75 18.7266 18.7266 21.75 15 21.75C13.5656 21.75 12.2367 21.3035 11.1434 20.5406C10.6336 20.1855 9.93398 20.3086 9.57539 20.8184C9.2168 21.3281 9.34336 22.0277 9.85312 22.3863C11.3156 23.4023 13.091 24 15 24C19.9711 24 24 19.9711 24 15C24 10.0289 19.9711 6 15 6C12.5145 6 10.2645 7.00898 8.63672 8.63672ZM15 10.5C14.5324 10.5 14.1562 10.8762 14.1562 11.3438V15C14.1562 15.225 14.2441 15.4395 14.4023 15.5977L16.9336 18.1289C17.2641 18.4594 17.7984 18.4594 18.1254 18.1289C18.4523 17.7984 18.4559 17.2641 18.1254 16.9371L15.8402 14.652V11.3438C15.8402 10.8762 15.4641 10.5 14.9965 10.5H15Z" fill="currentColor"/>
</svg>
