<svg width="30" height="30" viewBox="0 0 30 30" fill="none" xmlns="http://www.w3.org/2000/svg">
<rect width="30" height="30" />
<path d="M11.3511 14.5C13.6714 14.5 15.5518 12.5975 15.5518 10.25C15.5518 7.90254 13.6714 6 11.3511 6C9.03094 6 7.15049 7.90254 7.15049 10.25C7.15049 12.5975 9.03094 14.5 11.3511 14.5ZM9.85138 16.0938C6.61885 16.0938 4 18.7434 4 22.0139C4 22.5584 4.43647 23 4.97468 23H14.5935C14.4918 22.7078 14.4721 22.3891 14.5476 22.077L15.0398 20.0814C15.1317 19.7063 15.3221 19.3676 15.5912 19.0953L16.9137 17.7572C15.8603 16.7279 14.4294 16.0938 12.8476 16.0938H9.85138V16.0938ZM24.1435 13.826C23.6315 13.308 22.8012 13.308 22.286 13.826L21.3211 14.8021L23.6512 17.1596L24.616 16.1834C25.128 15.6654 25.128 14.8254 24.616 14.3041L24.1435 13.826ZM16.3361 19.8457C16.2016 19.9818 16.1064 20.1512 16.0605 20.3404L15.5682 22.3359C15.5223 22.5186 15.5748 22.7078 15.706 22.8406C15.8373 22.9734 16.0244 23.0266 16.2049 22.9801L18.1772 22.482C18.361 22.4355 18.5316 22.3393 18.6662 22.2031L22.9062 17.91L20.5762 15.5525L16.3361 19.8457Z" fill="currentColor"/>
<path d="M11.3511 14.5C13.6714 14.5 15.5518 12.5975 15.5518 10.25C15.5518 7.90254 13.6714 6 11.3511 6C9.03094 6 7.15049 7.90254 7.15049 10.25C7.15049 12.5975 9.03094 14.5 11.3511 14.5ZM9.85138 16.0938C6.61885 16.0938 4 18.7434 4 22.0139C4 22.5584 4.43647 23 4.97468 23H14.5935C14.4918 22.7078 14.4721 22.3891 14.5476 22.077L15.0398 20.0814C15.1317 19.7063 15.3221 19.3676 15.5912 19.0953L16.9137 17.7572C15.8603 16.7279 14.4294 16.0938 12.8476 16.0938H9.85138V16.0938ZM24.1435 13.826C23.6315 13.308 22.8012 13.308 22.286 13.826L21.3211 14.8021L23.6512 17.1596L24.616 16.1834C25.128 15.6654 25.128 14.8254 24.616 14.3041L24.1435 13.826ZM16.3361 19.8457C16.2016 19.9818 16.1064 20.1512 16.0605 20.3404L15.5682 22.3359C15.5223 22.5186 15.5748 22.7078 15.706 22.8406C15.8373 22.9734 16.0244 23.0266 16.2049 22.9801L18.1772 22.482C18.361 22.4355 18.5316 22.3393 18.6662 22.2031L22.9062 17.91L20.5762 15.5525L16.3361 19.8457Z" fill="currentColor"/>
</svg>
