<svg width="30" height="30" viewBox="0 0 30 30" fill="none" xmlns="http://www.w3.org/2000/svg">
<rect width="30" height="30" />
<path d="M11.25 8.5C11.9414 8.5 12.5 7.94141 12.5 7.25C12.5 6.55859 11.9414 6 11.25 6H8.75C6.67969 6 5 7.67969 5 9.75V19.75C5 21.8203 6.67969 23.5 8.75 23.5H11.25C11.9414 23.5 12.5 22.9414 12.5 22.25C12.5 21.5586 11.9414 21 11.25 21H8.75C8.05859 21 7.5 20.4414 7.5 19.75V9.75C7.5 9.05859 8.05859 8.5 8.75 8.5H11.25ZM24.707 15.4297C24.8945 15.2539 25 15.0078 25 14.75C25 14.4922 24.8945 14.2461 24.707 14.0703L19.082 8.75781C18.8086 8.5 18.4102 8.42969 18.0664 8.57812C17.7227 8.72656 17.5 9.06641 17.5 9.4375V12.25H12.5C11.8086 12.25 11.25 12.8086 11.25 13.5V16C11.25 16.6914 11.8086 17.25 12.5 17.25H17.5V20.0625C17.5 20.4375 17.7227 20.7734 18.0664 20.9219C18.4102 21.0703 18.8086 21 19.082 20.7422L24.707 15.4297Z" fill="currentColor"/>
<path d="M11.25 8.5C11.9414 8.5 12.5 7.94141 12.5 7.25C12.5 6.55859 11.9414 6 11.25 6H8.75C6.67969 6 5 7.67969 5 9.75V19.75C5 21.8203 6.67969 23.5 8.75 23.5H11.25C11.9414 23.5 12.5 22.9414 12.5 22.25C12.5 21.5586 11.9414 21 11.25 21H8.75C8.05859 21 7.5 20.4414 7.5 19.75V9.75C7.5 9.05859 8.05859 8.5 8.75 8.5H11.25ZM24.707 15.4297C24.8945 15.2539 25 15.0078 25 14.75C25 14.4922 24.8945 14.2461 24.707 14.0703L19.082 8.75781C18.8086 8.5 18.4102 8.42969 18.0664 8.57812C17.7227 8.72656 17.5 9.06641 17.5 9.4375V12.25H12.5C11.8086 12.25 11.25 12.8086 11.25 13.5V16C11.25 16.6914 11.8086 17.25 12.5 17.25H17.5V20.0625C17.5 20.4375 17.7227 20.7734 18.0664 20.9219C18.4102 21.0703 18.8086 21 19.082 20.7422L24.707 15.4297Z" fill="currentColor"/>
</svg>
