<svg width="30" height="30" viewBox="0 0 30 30" fill="none" xmlns="http://www.w3.org/2000/svg">
<rect width="30" height="30" />
<path d="M15.249 6C12.0928 6 9.56543 7.4375 7.72559 9.14844C5.89746 10.8438 4.6748 12.875 4.09668 14.2695C3.96777 14.5781 3.96777 14.9219 4.09668 15.2305C4.6748 16.625 5.89746 18.6562 7.72559 20.3516C9.56543 22.0625 12.0928 23.5 15.249 23.5C18.4053 23.5 20.9326 22.0625 22.7725 20.3516C24.6006 18.6523 25.8232 16.625 26.4053 15.2305C26.5342 14.9219 26.5342 14.5781 26.4053 14.2695C25.8232 12.875 24.6006 10.8438 22.7725 9.14844C20.9326 7.4375 18.4053 6 15.249 6ZM20.874 14.75C20.874 17.8555 18.3545 20.375 15.249 20.375C12.1436 20.375 9.62402 17.8555 9.62402 14.75C9.62402 11.6445 12.1436 9.125 15.249 9.125C18.3545 9.125 20.874 11.6445 20.874 14.75ZM15.249 12.25C15.249 13.6289 14.1279 14.75 12.749 14.75C12.2998 14.75 11.8779 14.6328 11.5146 14.4219C11.5068 14.5313 11.499 14.6367 11.499 14.75C11.499 16.8203 13.1787 18.5 15.249 18.5C17.3193 18.5 18.999 16.8203 18.999 14.75C18.999 12.6797 17.3193 11 15.249 11C15.1396 11 15.0303 11.0039 14.9209 11.0156C15.1279 11.3789 15.249 11.8008 15.249 12.25Z" fill="currentColor"/>
</svg>
