<svg width="30" height="30" viewBox="0 0 30 30" fill="none" xmlns="http://www.w3.org/2000/svg">
<rect width="30" height="30" />
<path d="M6.1875 7C6.84434 7 7.375 7.51071 7.375 8.14286V20.1429C7.375 20.4571 7.64219 20.7143 7.96875 20.7143H22.8125C23.4693 20.7143 24 21.225 24 21.8571C24 22.4893 23.4693 23 22.8125 23H7.96875C6.32852 23 5 21.7214 5 20.1429V8.14286C5 7.51071 5.53066 7 6.1875 7ZM9.75 10.4286C9.75 9.79643 10.2807 9.28571 10.9375 9.28571H18.0625C18.7193 9.28571 19.25 9.79643 19.25 10.4286C19.25 11.0607 18.7193 11.5714 18.0625 11.5714H10.9375C10.2807 11.5714 9.75 11.0607 9.75 10.4286ZM10.9375 12.7143H15.6875C16.3443 12.7143 16.875 13.225 16.875 13.8571C16.875 14.4893 16.3443 15 15.6875 15H10.9375C10.2807 15 9.75 14.4893 9.75 13.8571C9.75 13.225 10.2807 12.7143 10.9375 12.7143ZM10.9375 16.1429H20.4375C21.0943 16.1429 21.625 16.6536 21.625 17.2857C21.625 17.9179 21.0943 18.4286 20.4375 18.4286H10.9375C10.2807 18.4286 9.75 17.9179 9.75 17.2857C9.75 16.6536 10.2807 16.1429 10.9375 16.1429Z" fill="currentColor"/>
</svg>
