<svg width="30" height="30" viewBox="0 0 30 30" fill="none" xmlns="http://www.w3.org/2000/svg">
<rect width="30" height="30" />
<path d="M6.85937 16.0879L13.918 22.6777C14.2109 22.9511 14.5977 23.1035 15 23.1035C15.4023 23.1035 15.7891 22.9511 16.082 22.6777L23.1406 16.0879C24.3281 14.9824 25 13.4316 25 11.8105V11.5839C25 8.85348 23.0273 6.52536 20.3359 6.07614C18.5547 5.77926 16.7422 6.36129 15.4688 7.63473L15 8.10348L14.5312 7.63473C13.2578 6.36129 11.4453 5.77926 9.66406 6.07614C6.97266 6.52536 5 8.85348 5 11.5839V11.8105C5 13.4316 5.67187 14.9824 6.85937 16.0879Z" fill="currentColor"/>
</svg>
