<svg width="30" height="30" viewBox="0 0 30 30" fill="none" xmlns="http://www.w3.org/2000/svg">
<rect width="30" height="30" />
<path d="M26.4922 14.9805C26.4922 15.6836 25.9062 16.2344 25.2422 16.2344H23.9922L24.0195 22.4922C24.0195 22.5977 24.0117 22.7031 24 22.8086V23.4375C24 24.3008 23.3008 25 22.4375 25H21.8125C21.7695 25 21.7266 25 21.6836 24.9961C21.6289 25 21.5742 25 21.5195 25H20.25H19.3125C18.4492 25 17.75 24.3008 17.75 23.4375V22.5V20C17.75 19.3086 17.1914 18.75 16.5 18.75H14C13.3086 18.75 12.75 19.3086 12.75 20V22.5V23.4375C12.75 24.3008 12.0508 25 11.1875 25H10.25H9.00391C8.94531 25 8.88672 24.9961 8.82812 24.9922C8.78125 24.9961 8.73437 25 8.6875 25H8.0625C7.19922 25 6.5 24.3008 6.5 23.4375V19.0625C6.5 19.0273 6.5 18.9883 6.50391 18.9531V16.2344H5.25C4.54687 16.2344 4 15.6875 4 14.9805C4 14.6289 4.11719 14.3164 4.39062 14.043L14.4062 5.3125C14.6797 5.03906 14.9922 5 15.2656 5C15.5391 5 15.8516 5.07812 16.0859 5.27344L26.0625 14.043C26.375 14.3164 26.5312 14.6289 26.4922 14.9805Z" fill="currentColor"/>
<path d="M26.4922 14.9805C26.4922 15.6836 25.9062 16.2344 25.2422 16.2344H23.9922L24.0195 22.4922C24.0195 22.5977 24.0117 22.7031 24 22.8086V23.4375C24 24.3008 23.3008 25 22.4375 25H21.8125C21.7695 25 21.7266 25 21.6836 24.9961C21.6289 25 21.5742 25 21.5195 25H20.25H19.3125C18.4492 25 17.75 24.3008 17.75 23.4375V22.5V20C17.75 19.3086 17.1914 18.75 16.5 18.75H14C13.3086 18.75 12.75 19.3086 12.75 20V22.5V23.4375C12.75 24.3008 12.0508 25 11.1875 25H10.25H9.00391C8.94531 25 8.88672 24.9961 8.82812 24.9922C8.78125 24.9961 8.73437 25 8.6875 25H8.0625C7.19922 25 6.5 24.3008 6.5 23.4375V19.0625C6.5 19.0273 6.5 18.9883 6.50391 18.9531V16.2344H5.25C4.54687 16.2344 4 15.6875 4 14.9805C4 14.6289 4.11719 14.3164 4.39062 14.043L14.4062 5.3125C14.6797 5.03906 14.9922 5 15.2656 5C15.5391 5 15.8516 5.07812 16.0859 5.27344L26.0625 14.043C26.375 14.3164 26.5312 14.6289 26.4922 14.9805Z" fill="currentColor"/>
</svg>
