<svg width="30" height="30" viewBox="0 0 30 30" fill="none" xmlns="http://www.w3.org/2000/svg">
<rect width="30" height="30" />
<path d="M18.125 18.75C21.9219 18.75 25 15.6719 25 11.875C25 8.07813 21.9219 5 18.125 5C14.3281 5 11.25 8.07813 11.25 11.875C11.25 12.6055 11.3633 13.3125 11.5742 13.9727L5.27344 20.2734C5.09766 20.4492 5 20.6875 5 20.9375V24.0625C5 24.582 5.41797 25 5.9375 25H9.0625C9.58203 25 10 24.582 10 24.0625V22.5H11.5625C12.082 22.5 12.5 22.082 12.5 21.5625V20H14.0625C14.3125 20 14.5508 19.9023 14.7266 19.7266L16.0273 18.4258C16.6875 18.6367 17.3945 18.75 18.125 18.75ZM19.6875 11.875C18.8242 11.875 18.125 11.1758 18.125 10.3125C18.125 9.44922 18.8242 8.75 19.6875 8.75C20.5508 8.75 21.25 9.44922 21.25 10.3125C21.25 11.1758 20.5508 11.875 19.6875 11.875Z" fill="currentColor"/>
</svg>
