<svg width="30" height="30" viewBox="0 0 30 30" fill="none" xmlns="http://www.w3.org/2000/svg">
<rect width="30" height="30" />
<path d="M12.1429 11.5V13H17.8571V11.5C17.8571 10.1188 16.5786 9 15 9C13.4214 9 12.1429 10.1188 12.1429 11.5ZM9.85714 13V11.5C9.85714 9.01563 12.1607 7 15 7C17.8393 7 20.1429 9.01563 20.1429 11.5V13H20.7143C21.975 13 23 13.8969 23 15V21C23 22.1031 21.975 23 20.7143 23H9.28571C8.025 23 7 22.1031 7 21V15C7 13.8969 8.025 13 9.28571 13H9.85714Z" fill="currentColor"/>
</svg>
