<svg width="30" height="30" viewBox="0 0 30 30" fill="none" xmlns="http://www.w3.org/2000/svg">
<rect width="30" height="30" />
<path d="M11.2727 8.75C11.2727 7.75544 11.6319 6.80161 12.2712 6.09835C12.9105 5.39509 13.7776 5 14.6818 5C15.5859 5 16.4531 5.39509 17.0924 6.09835C17.7317 6.80161 18.0909 7.75544 18.0909 8.75V15C18.0909 15.9946 17.7317 16.9484 17.0924 17.6517C16.4531 18.3549 15.5859 18.75 14.6818 18.75C13.7776 18.75 12.9105 18.3549 12.2712 17.6517C11.6319 16.9484 11.2727 15.9946 11.2727 15V8.75Z" fill="currentColor"/>
<path d="M9.56818 13.125C9.71887 13.125 9.86339 13.1908 9.96995 13.3081C10.0765 13.4253 10.1364 13.5842 10.1364 13.75V15C10.1364 16.3261 10.6153 17.5979 11.4677 18.5355C12.3201 19.4732 13.4763 20 14.6818 20C15.8873 20 17.0435 19.4732 17.8959 18.5355C18.7484 17.5979 19.2273 16.3261 19.2273 15V13.75C19.2273 13.5842 19.2871 13.4253 19.3937 13.3081C19.5002 13.1908 19.6448 13.125 19.7955 13.125C19.9461 13.125 20.0907 13.1908 20.1972 13.3081C20.3038 13.4253 20.3636 13.5842 20.3636 13.75V15C20.3637 16.5494 19.8405 18.0436 18.8956 19.1927C17.9507 20.3418 16.6515 21.0638 15.25 21.2188V23.75H18.6591C18.8098 23.75 18.9543 23.8158 19.0609 23.9331C19.1674 24.0503 19.2273 24.2092 19.2273 24.375C19.2273 24.5408 19.1674 24.6997 19.0609 24.8169C18.9543 24.9342 18.8098 25 18.6591 25H10.7045C10.5539 25 10.4093 24.9342 10.3028 24.8169C10.1962 24.6997 10.1364 24.5408 10.1364 24.375C10.1364 24.2092 10.1962 24.0503 10.3028 23.9331C10.4093 23.8158 10.5539 23.75 10.7045 23.75H14.1136V21.2188C12.7121 21.0638 11.4129 20.3418 10.468 19.1927C9.52316 18.0436 8.99998 16.5494 9 15V13.75C9 13.5842 9.05986 13.4253 9.16642 13.3081C9.27297 13.1908 9.41749 13.125 9.56818 13.125Z" fill="currentColor"/>
</svg>
