<svg width="30" height="30" viewBox="0 0 30 30" fill="none" xmlns="http://www.w3.org/2000/svg">
<g clip-path="url(#clip0_3321_2538)">
<path d="M23.4339 11.857C23.5464 12.1629 23.4515 12.5039 23.2089 12.7219L21.6866 14.107C21.7253 14.3988 21.7464 14.6977 21.7464 15C21.7464 15.3023 21.7253 15.6012 21.6866 15.893L23.2089 17.2781C23.4515 17.4961 23.5464 17.8371 23.4339 18.143C23.2792 18.5613 23.0929 18.9621 22.8784 19.3488L22.7132 19.6336C22.4812 20.0203 22.221 20.3859 21.9362 20.7305C21.7288 20.9836 21.3843 21.068 21.0749 20.9695L19.1167 20.3473C18.6456 20.7094 18.1253 21.0117 17.5698 21.2402L17.1304 23.2477C17.0601 23.5676 16.814 23.8207 16.4905 23.8734C16.0054 23.9543 15.5062 23.9965 14.9964 23.9965C14.4866 23.9965 13.9874 23.9543 13.5023 23.8734C13.1788 23.8207 12.9327 23.5676 12.8624 23.2477L12.423 21.2402C11.8675 21.0117 11.3472 20.7094 10.8761 20.3473L8.9214 20.973C8.61202 21.0715 8.26749 20.9836 8.06007 20.734C7.7753 20.3895 7.51515 20.0238 7.28311 19.6371L7.11788 19.3523C6.90343 18.9656 6.7171 18.5648 6.56241 18.1465C6.44991 17.8406 6.54483 17.4996 6.78741 17.2816L8.30968 15.8965C8.27101 15.6012 8.24991 15.3023 8.24991 15C8.24991 14.6977 8.27101 14.3988 8.30968 14.107L6.78741 12.7219C6.54483 12.5039 6.44991 12.1629 6.56241 11.857C6.7171 11.4387 6.90343 11.0379 7.11788 10.6512L7.28311 10.3664C7.51515 9.97969 7.7753 9.61406 8.06007 9.26953C8.26749 9.01641 8.61202 8.93203 8.9214 9.03047L10.8796 9.65273C11.3507 9.29063 11.871 8.98828 12.4265 8.75977L12.8659 6.75234C12.9362 6.43242 13.1823 6.1793 13.5058 6.12656C13.9909 6.04219 14.4901 6 14.9999 6C15.5097 6 16.0089 6.04219 16.4941 6.12305C16.8175 6.17578 17.0636 6.42891 17.1339 6.74883L17.5734 8.75625C18.1288 8.98477 18.6491 9.28711 19.1202 9.64922L21.0784 9.02695C21.3878 8.92852 21.7323 9.01641 21.9398 9.26602C22.2245 9.61055 22.4847 9.97617 22.7167 10.3629L22.8819 10.6477C23.0964 11.0344 23.2827 11.4352 23.4374 11.8535L23.4339 11.857ZM14.9999 17.8125C16.5538 17.8125 17.8124 16.5539 17.8124 15C17.8124 13.4461 16.5538 12.1875 14.9999 12.1875C13.446 12.1875 12.1874 13.4461 12.1874 15C12.1874 16.5539 13.446 17.8125 14.9999 17.8125Z" fill="currentColor"/>
</g>
<defs>
<clipPath id="clip0_3321_2538">
<rect width="18" height="18" fill="white" transform="translate(6 6)"/>
</clipPath>
</defs>
</svg>
