<svg width="30" height="30" viewBox="0 0 30 30" fill="none" xmlns="http://www.w3.org/2000/svg">
<rect width="30" height="30" />
<path d="M5.36426 5.19944C4.99864 4.87913 4.46778 4.95334 4.17949 5.35959C3.89121 5.76584 3.95801 6.35569 4.32364 6.676L25.1361 24.801C25.5018 25.1213 26.0326 25.0471 26.3209 24.6408C26.6092 24.2346 26.5424 23.6448 26.1768 23.3244L22.4783 20.1057C23.8705 18.5198 24.8127 16.7424 25.2873 15.4807C25.4033 15.1721 25.4033 14.8283 25.2873 14.5198C24.7635 13.1252 23.6631 11.094 22.0178 9.39866C20.3654 7.68772 18.0908 6.25022 15.2502 6.25022C12.8525 6.25022 10.8557 7.27756 9.29824 8.62522L5.36426 5.19944ZM11.8436 10.8401C12.74 9.92991 13.9389 9.37522 15.2502 9.37522C18.0451 9.37522 20.3127 11.8948 20.3127 15.0002C20.3127 15.9729 20.0912 16.8869 19.701 17.6838L18.3439 16.5041C18.5268 16.0432 18.6252 15.5354 18.6252 15.0002C18.6252 12.9299 17.1135 11.2502 15.2502 11.2502C15.1518 11.2502 15.0533 11.2541 14.9549 11.2658C15.1412 11.6291 15.2502 12.051 15.2502 12.5002C15.2502 12.8987 15.1658 13.2737 15.0182 13.6057L11.8436 10.8401V10.8401ZM19.6869 22.4807L17.1135 20.2307C16.5369 20.4846 15.9076 20.6252 15.2502 20.6252C12.4553 20.6252 10.1877 18.1057 10.1877 15.0002C10.1877 14.7307 10.2053 14.469 10.2369 14.2112L6.92168 11.3088C6.12012 12.469 5.54707 13.6252 5.21309 14.5198C5.09707 14.8283 5.09707 15.1721 5.21309 15.4807C5.73692 16.8752 6.83731 18.9065 8.48262 20.6018C10.135 22.3127 12.4096 23.7502 15.2502 23.7502C16.9307 23.7502 18.4107 23.2463 19.6869 22.4807Z" fill="currentColor"/>
</svg>
