<svg width="30" height="30" viewBox="0 0 30 30" fill="none" xmlns="http://www.w3.org/2000/svg">
<rect width="30" height="30" />
<path d="M8.4375 6.875C7.575 6.875 6.875 7.575 6.875 8.4375V10.3125C6.875 10.5611 6.77623 10.7996 6.60041 10.9754C6.4246 11.1512 6.18614 11.25 5.9375 11.25C5.68886 11.25 5.4504 11.1512 5.27459 10.9754C5.09877 10.7996 5 10.5611 5 10.3125V8.4375C5 7.52582 5.36216 6.65148 6.00682 6.00682C6.65148 5.36216 7.52582 5 8.4375 5H10.3125C10.5611 5 10.7996 5.09877 10.9754 5.27459C11.1512 5.4504 11.25 5.68886 11.25 5.9375C11.25 6.18614 11.1512 6.4246 10.9754 6.60041C10.7996 6.77623 10.5611 6.875 10.3125 6.875H8.4375ZM8.4375 23.125C7.575 23.125 6.875 22.425 6.875 21.5625V19.6875C6.875 19.4389 6.77623 19.2004 6.60041 19.0246C6.4246 18.8488 6.18614 18.75 5.9375 18.75C5.68886 18.75 5.4504 18.8488 5.27459 19.0246C5.09877 19.2004 5 19.4389 5 19.6875V21.5625C5 22.4742 5.36216 23.3485 6.00682 23.9932C6.65148 24.6378 7.52582 25 8.4375 25H10.3125C10.5611 25 10.7996 24.9012 10.9754 24.7254C11.1512 24.5496 11.25 24.3111 11.25 24.0625C11.25 23.8139 11.1512 23.5754 10.9754 23.3996C10.7996 23.2238 10.5611 23.125 10.3125 23.125H8.4375ZM23.125 8.4375C23.125 7.575 22.425 6.875 21.5625 6.875H19.6875C19.4389 6.875 19.2004 6.77623 19.0246 6.60041C18.8488 6.4246 18.75 6.18614 18.75 5.9375C18.75 5.68886 18.8488 5.4504 19.0246 5.27459C19.2004 5.09877 19.4389 5 19.6875 5H21.5625C22.4742 5 23.3485 5.36216 23.9932 6.00682C24.6378 6.65148 25 7.52582 25 8.4375V10.3125C25 10.5611 24.9012 10.7996 24.7254 10.9754C24.5496 11.1512 24.3111 11.25 24.0625 11.25C23.8139 11.25 23.5754 11.1512 23.3996 10.9754C23.2238 10.7996 23.125 10.5611 23.125 10.3125V8.4375ZM21.5625 23.125C22.425 23.125 23.125 22.425 23.125 21.5625V19.6875C23.125 19.4389 23.2238 19.2004 23.3996 19.0246C23.5754 18.8488 23.8139 18.75 24.0625 18.75C24.3111 18.75 24.5496 18.8488 24.7254 19.0246C24.9012 19.2004 25 19.4389 25 19.6875V21.5625C25 22.4742 24.6378 23.3485 23.9932 23.9932C23.3485 24.6378 22.4742 25 21.5625 25H19.6875C19.4389 25 19.2004 24.9012 19.0246 24.7254C18.8488 24.5496 18.75 24.3111 18.75 24.0625C18.75 23.8139 18.8488 23.5754 19.0246 23.3996C19.2004 23.2238 19.4389 23.125 19.6875 23.125H21.5625ZM10.625 8.75C10.3764 8.75 10.1379 8.84877 9.96209 9.02459C9.78627 9.2004 9.6875 9.43886 9.6875 9.6875V10.9375C9.6875 11.1861 9.78627 11.4246 9.96209 11.6004C10.1379 11.7762 10.3764 11.875 10.625 11.875C10.8736 11.875 11.1121 11.7762 11.2879 11.6004C11.4637 11.4246 11.5625 11.1861 11.5625 10.9375V10.625H14.0625V19.375H13.75C13.5014 19.375 13.2629 19.4738 13.0871 19.6496C12.9113 19.8254 12.8125 20.0639 12.8125 20.3125C12.8125 20.5611 12.9113 20.7996 13.0871 20.9754C13.2629 21.1512 13.5014 21.25 13.75 21.25H16.25C16.4986 21.25 16.7371 21.1512 16.9129 20.9754C17.0887 20.7996 17.1875 20.5611 17.1875 20.3125C17.1875 20.0639 17.0887 19.8254 16.9129 19.6496C16.7371 19.4738 16.4986 19.375 16.25 19.375H15.9375V10.625H18.4375V10.9375C18.4375 11.1861 18.5363 11.4246 18.7121 11.6004C18.8879 11.7762 19.1264 11.875 19.375 11.875C19.6236 11.875 19.8621 11.7762 20.0379 11.6004C20.2137 11.4246 20.3125 11.1861 20.3125 10.9375V9.6875C20.3125 9.43886 20.2137 9.2004 20.0379 9.02459C19.8621 8.84877 19.6236 8.75 19.375 8.75H10.625Z" fill="currentColor"/>
</svg>
