<svg width="30" height="30" viewBox="0 0 30 30" fill="none" xmlns="http://www.w3.org/2000/svg">
<rect width="30" height="30" />
<path d="M9.5007 12C10.8822 12 12.0011 10.8813 12.0011 9.5C12.0011 8.11875 10.8822 7 9.5007 7C8.11924 7 7.00031 8.11875 7.00031 9.5C7.00031 10.8813 8.11924 12 9.5007 12ZM21.0025 12C22.384 12 23.5029 10.8813 23.5029 9.5C23.5029 8.11875 22.384 7 21.0025 7C19.621 7 18.5021 8.11875 18.5021 9.5C18.5021 10.8813 19.621 12 21.0025 12ZM5 16.3344C5 16.7 5.30005 17 5.66573 17H12.3355C12.3418 17 12.348 17 12.3574 17C11.526 16.2656 11.0041 15.1938 11.0041 14C11.0041 13.7625 11.0259 13.5312 11.0634 13.3031C10.6384 13.1062 10.1664 13 9.66948 13H8.3349C6.49398 13 5 14.4938 5 16.3344ZM15.0016 17C15.7517 17 16.4362 16.725 16.9612 16.2719C17.0394 16.1563 17.1238 16.0438 17.2113 15.9375C17.2957 15.8344 17.3894 15.7469 17.4926 15.6781C17.8145 15.1969 18.002 14.6219 18.002 14C18.002 12.3438 16.6581 11 15.0016 11C13.3451 11 12.0011 12.3438 12.0011 14C12.0011 15.6562 13.3451 17 15.0016 17ZM17.0456 18.8813C16.7237 18.6969 16.4799 18.375 16.3955 18H13.1669C10.8665 18 9.00063 19.8656 9.00063 22.1656C9.00063 22.625 9.37256 23 9.83513 23H19.2272C19.1616 22.8375 19.1272 22.6594 19.1272 22.4875V22.3938C19.0866 22.3719 19.0428 22.3469 19.0022 22.3219L18.9209 22.3687C18.3958 22.6719 17.6551 22.6188 17.2113 22.0656C17.0706 21.8906 16.9425 21.7062 16.8237 21.5156L16.8206 21.5094L16.8175 21.5031L16.7425 21.375L16.7393 21.3687L16.7362 21.3625C16.6299 21.1688 16.5362 20.9687 16.4549 20.7594C16.1986 20.0969 16.5237 19.4281 17.0488 19.125L17.1331 19.0781C17.1331 19.0531 17.1331 19.0313 17.1331 19.0063C17.1331 18.9813 17.1331 18.9594 17.1331 18.9344L17.0488 18.8875L17.0456 18.8813ZM21.6682 13H20.3368C19.8398 13 19.3679 13.1094 18.9428 13.3031C18.9834 13.5281 19.0022 13.7625 19.0022 14C19.0022 14.5437 18.8928 15.0594 18.699 15.5312C18.7772 15.5594 18.8522 15.5937 18.9209 15.6344L19.0022 15.6812C19.0428 15.6562 19.0835 15.6312 19.1272 15.6094V15.5156C19.1272 14.9094 19.5429 14.2937 20.2461 14.1844C20.493 14.1469 20.7462 14.125 21.0025 14.125C21.2588 14.125 21.512 14.1437 21.7589 14.1844C22.4621 14.2937 22.8778 14.9094 22.8778 15.5156V15.6094C22.9184 15.6312 22.9622 15.6562 23.0028 15.6812L23.0841 15.6344C23.6092 15.3312 24.3499 15.3844 24.7937 15.9375C24.8656 16.025 24.9344 16.1188 25 16.2094C24.9344 14.425 23.4685 13 21.6682 13V13ZM24.5218 18.1219C24.7187 18.0094 24.8187 17.775 24.7343 17.5594C24.6687 17.3875 24.5906 17.2219 24.503 17.0625L24.4312 16.9375C24.3343 16.7781 24.228 16.6281 24.1124 16.4844C23.9686 16.3063 23.7154 16.275 23.5185 16.3906L22.9528 16.7188C22.6746 16.4813 22.3558 16.2937 22.0027 16.1687V15.5125C22.0027 15.2844 21.8495 15.0813 21.6245 15.0469C21.4213 15.0156 21.215 15 21.0025 15C20.79 15 20.5837 15.0156 20.3805 15.0469C20.1555 15.0813 20.0023 15.2844 20.0023 15.5125V16.1687C19.6523 16.2937 19.3304 16.4813 19.0522 16.7188L18.4834 16.3906C18.2865 16.2781 18.0333 16.3094 17.8895 16.4844C17.7739 16.6281 17.6676 16.7813 17.5707 16.9406L17.4988 17.0625C17.4113 17.2219 17.3332 17.3875 17.2675 17.5594C17.1863 17.7719 17.2832 18.0062 17.4801 18.1187L18.0489 18.4469C18.0177 18.625 17.9989 18.8094 17.9989 18.9969C17.9989 19.1844 18.0177 19.3687 18.0489 19.5437L17.4801 19.8719C17.2832 19.9844 17.1832 20.2187 17.2675 20.4312C17.3332 20.6031 17.4113 20.7656 17.4988 20.925L17.5738 21.0531C17.6676 21.2125 17.7739 21.3625 17.8895 21.5063C18.0333 21.6844 18.2865 21.7156 18.4834 21.6L19.0522 21.2812C19.3304 21.5187 19.6523 21.7063 20.0023 21.8313V22.4875C20.0023 22.7156 20.1555 22.9187 20.3805 22.9531C20.5837 22.9844 20.79 23 21.0025 23C21.215 23 21.4213 22.9844 21.6245 22.9531C21.8495 22.9187 22.0027 22.7156 22.0027 22.4875V21.8313C22.3527 21.7063 22.6746 21.5187 22.9528 21.2812L23.5216 21.6094C23.7185 21.7219 23.9717 21.6906 24.1155 21.5156C24.2311 21.3719 24.3374 21.2219 24.4312 21.0625L24.5062 20.9312C24.5937 20.7719 24.6718 20.6094 24.7375 20.4375C24.8187 20.225 24.7218 19.9906 24.5249 19.8781L23.9561 19.55C23.9873 19.3719 24.0061 19.1875 24.0061 19.0031C24.0061 18.8188 23.9873 18.6312 23.9561 18.4531L24.5249 18.125L24.5218 18.1219ZM22.2527 19C22.2527 19.6906 21.6932 20.25 21.0025 20.25C20.3118 20.25 19.7523 19.6906 19.7523 19C19.7523 18.3094 20.3118 17.75 21.0025 17.75C21.6932 17.75 22.2527 18.3094 22.2527 19Z" fill="currentColor"/>
<path d="M9.5007 12C10.8822 12 12.0011 10.8813 12.0011 9.5C12.0011 8.11875 10.8822 7 9.5007 7C8.11924 7 7.00031 8.11875 7.00031 9.5C7.00031 10.8813 8.11924 12 9.5007 12ZM21.0025 12C22.384 12 23.5029 10.8813 23.5029 9.5C23.5029 8.11875 22.384 7 21.0025 7C19.621 7 18.5021 8.11875 18.5021 9.5C18.5021 10.8813 19.621 12 21.0025 12ZM5 16.3344C5 16.7 5.30005 17 5.66573 17H12.3355C12.3418 17 12.348 17 12.3574 17C11.526 16.2656 11.0041 15.1938 11.0041 14C11.0041 13.7625 11.0259 13.5312 11.0634 13.3031C10.6384 13.1062 10.1664 13 9.66948 13H8.3349C6.49398 13 5 14.4938 5 16.3344ZM15.0016 17C15.7517 17 16.4362 16.725 16.9612 16.2719C17.0394 16.1563 17.1238 16.0438 17.2113 15.9375C17.2957 15.8344 17.3894 15.7469 17.4926 15.6781C17.8145 15.1969 18.002 14.6219 18.002 14C18.002 12.3438 16.6581 11 15.0016 11C13.3451 11 12.0011 12.3438 12.0011 14C12.0011 15.6562 13.3451 17 15.0016 17ZM17.0456 18.8813C16.7237 18.6969 16.4799 18.375 16.3955 18H13.1669C10.8665 18 9.00063 19.8656 9.00063 22.1656C9.00063 22.625 9.37256 23 9.83513 23H19.2272C19.1616 22.8375 19.1272 22.6594 19.1272 22.4875V22.3938C19.0866 22.3719 19.0428 22.3469 19.0022 22.3219L18.9209 22.3687C18.3958 22.6719 17.6551 22.6188 17.2113 22.0656C17.0706 21.8906 16.9425 21.7062 16.8237 21.5156L16.8206 21.5094L16.8175 21.5031L16.7425 21.375L16.7393 21.3687L16.7362 21.3625C16.6299 21.1688 16.5362 20.9687 16.4549 20.7594C16.1986 20.0969 16.5237 19.4281 17.0488 19.125L17.1331 19.0781C17.1331 19.0531 17.1331 19.0313 17.1331 19.0063C17.1331 18.9813 17.1331 18.9594 17.1331 18.9344L17.0488 18.8875L17.0456 18.8813ZM21.6682 13H20.3368C19.8398 13 19.3679 13.1094 18.9428 13.3031C18.9834 13.5281 19.0022 13.7625 19.0022 14C19.0022 14.5437 18.8928 15.0594 18.699 15.5312C18.7772 15.5594 18.8522 15.5937 18.9209 15.6344L19.0022 15.6812C19.0428 15.6562 19.0835 15.6312 19.1272 15.6094V15.5156C19.1272 14.9094 19.5429 14.2937 20.2461 14.1844C20.493 14.1469 20.7462 14.125 21.0025 14.125C21.2588 14.125 21.512 14.1437 21.7589 14.1844C22.4621 14.2937 22.8778 14.9094 22.8778 15.5156V15.6094C22.9184 15.6312 22.9622 15.6562 23.0028 15.6812L23.0841 15.6344C23.6092 15.3312 24.3499 15.3844 24.7937 15.9375C24.8656 16.025 24.9344 16.1188 25 16.2094C24.9344 14.425 23.4685 13 21.6682 13V13ZM24.5218 18.1219C24.7187 18.0094 24.8187 17.775 24.7343 17.5594C24.6687 17.3875 24.5906 17.2219 24.503 17.0625L24.4312 16.9375C24.3343 16.7781 24.228 16.6281 24.1124 16.4844C23.9686 16.3063 23.7154 16.275 23.5185 16.3906L22.9528 16.7188C22.6746 16.4813 22.3558 16.2937 22.0027 16.1687V15.5125C22.0027 15.2844 21.8495 15.0813 21.6245 15.0469C21.4213 15.0156 21.215 15 21.0025 15C20.79 15 20.5837 15.0156 20.3805 15.0469C20.1555 15.0813 20.0023 15.2844 20.0023 15.5125V16.1687C19.6523 16.2937 19.3304 16.4813 19.0522 16.7188L18.4834 16.3906C18.2865 16.2781 18.0333 16.3094 17.8895 16.4844C17.7739 16.6281 17.6676 16.7813 17.5707 16.9406L17.4988 17.0625C17.4113 17.2219 17.3332 17.3875 17.2675 17.5594C17.1863 17.7719 17.2832 18.0062 17.4801 18.1187L18.0489 18.4469C18.0177 18.625 17.9989 18.8094 17.9989 18.9969C17.9989 19.1844 18.0177 19.3687 18.0489 19.5437L17.4801 19.8719C17.2832 19.9844 17.1832 20.2187 17.2675 20.4312C17.3332 20.6031 17.4113 20.7656 17.4988 20.925L17.5738 21.0531C17.6676 21.2125 17.7739 21.3625 17.8895 21.5063C18.0333 21.6844 18.2865 21.7156 18.4834 21.6L19.0522 21.2812C19.3304 21.5187 19.6523 21.7063 20.0023 21.8313V22.4875C20.0023 22.7156 20.1555 22.9187 20.3805 22.9531C20.5837 22.9844 20.79 23 21.0025 23C21.215 23 21.4213 22.9844 21.6245 22.9531C21.8495 22.9187 22.0027 22.7156 22.0027 22.4875V21.8313C22.3527 21.7063 22.6746 21.5187 22.9528 21.2812L23.5216 21.6094C23.7185 21.7219 23.9717 21.6906 24.1155 21.5156C24.2311 21.3719 24.3374 21.2219 24.4312 21.0625L24.5062 20.9312C24.5937 20.7719 24.6718 20.6094 24.7375 20.4375C24.8187 20.225 24.7218 19.9906 24.5249 19.8781L23.9561 19.55C23.9873 19.3719 24.0061 19.1875 24.0061 19.0031C24.0061 18.8188 23.9873 18.6312 23.9561 18.4531L24.5249 18.125L24.5218 18.1219ZM22.2527 19C22.2527 19.6906 21.6932 20.25 21.0025 20.25C20.3118 20.25 19.7523 19.6906 19.7523 19C19.7523 18.3094 20.3118 17.75 21.0025 17.75C21.6932 17.75 22.2527 18.3094 22.2527 19Z" fill="currentColor"/>
</svg>
