<svg width="30" height="30" viewBox="0 0 30 30" fill="none" xmlns="http://www.w3.org/2000/svg">
<rect width="30" height="30" />
<path d="M23.4673 9.07403C24.1701 8.37123 24.1701 7.22989 23.4673 6.5271C22.7645 5.8243 21.6231 5.8243 20.9203 6.5271L15 12.4531L9.07403 6.53272C8.37123 5.82992 7.22989 5.82992 6.5271 6.53272C5.8243 7.23551 5.8243 8.37685 6.5271 9.07965L12.4531 15L6.53272 20.926C5.82992 21.6288 5.82992 22.7701 6.53272 23.4729C7.23551 24.1757 8.37685 24.1757 9.07965 23.4729L15 17.5469L20.926 23.4673C21.6288 24.1701 22.7701 24.1701 23.4729 23.4673C24.1757 22.7645 24.1757 21.6231 23.4729 20.9203L17.5469 15L23.4673 9.07403Z" fill="currentColor"/>
</svg>
